<svg width="140" height="45" viewBox="0 0 140 45" fill="none" xmlns="http://www.w3.org/2000/svg">
<path d="M138.805 0.974182H1.18872V43.8547H138.805V0.974182Z" stroke="white" stroke-linejoin="round"/>
<path d="M35.5467 34.6478H35.4347C34.8272 34.6478 34.3169 34.1496 34.2728 33.5137C34.2285 32.8468 34.7156 32.2663 35.3589 32.2225C35.3842 32.2208 35.4106 32.2199 35.4366 32.2199C36.0519 32.2199 36.5672 32.7084 36.613 33.3335C36.6247 33.5812 36.5843 33.9345 36.3296 34.2262L36.3237 34.233L36.3179 34.2398C36.1217 34.4728 35.8557 34.6133 35.5467 34.6478ZM21.8528 34.6415C21.204 34.6415 20.6763 34.1 20.6763 33.4345C20.6763 32.7695 21.204 32.2284 21.8528 32.2284C22.5016 32.2284 23.0293 32.7695 23.0293 33.4345C23.0293 34.1 22.5016 34.6415 21.8528 34.6415Z" fill="white"/>
<path d="M35.4703 33.6495C35.5152 33.6382 35.5365 33.6172 35.5541 33.5963C35.5619 33.5871 35.5697 33.578 35.5775 33.569C35.6139 33.5274 35.6172 33.4391 35.6163 33.3944C35.6032 33.2887 35.5127 33.216 35.4356 33.216C35.4319 33.216 35.4281 33.2161 35.4257 33.2162C35.3478 33.2216 35.2603 33.3251 35.2669 33.4463C35.2762 33.5628 35.3621 33.6495 35.4337 33.6495H35.4703ZM21.8518 33.6431C21.9507 33.6431 22.0311 33.549 22.0311 33.4334C22.0311 33.3182 21.9507 33.2245 21.8518 33.2245C21.753 33.2245 21.6725 33.3182 21.6725 33.4334C21.6725 33.549 21.753 33.6431 21.8518 33.6431ZM35.5935 35.6439C35.5459 35.6439 35.4821 35.6439 35.4337 35.6439C34.2993 35.6439 33.3569 34.7347 33.277 33.5814C33.1971 32.3797 34.0919 31.3081 35.2901 31.2264C35.3389 31.2231 35.3874 31.2215 35.4356 31.2215C36.5712 31.2215 37.53 32.1199 37.6074 33.2727C37.6388 33.8741 37.4629 34.4422 37.0797 34.881C36.6965 35.3361 36.1688 35.5955 35.5935 35.6439ZM21.8518 35.6376C20.651 35.6376 19.6781 34.6513 19.6781 33.4334C19.6781 32.2163 20.651 31.2301 21.8518 31.2301C23.0526 31.2301 24.0256 32.2163 24.0256 33.4334C24.0256 34.6513 23.0526 35.6376 21.8518 35.6376ZM34.7947 28.7906H22.7628C22.3311 28.7906 21.9479 28.4981 21.8356 28.0763L17.9208 13.6865H15.1726C14.6458 13.6865 14.2141 13.2487 14.2141 12.7119C14.2141 12.1761 14.6458 11.7372 15.1726 11.7372H18.6406C19.0714 11.7372 19.4546 12.0298 19.5668 12.4525L23.4817 26.8413H34.1556L37.7026 18.5591H25.8789C25.3512 18.5591 24.9195 18.1202 24.9195 17.5845C24.9195 17.0486 25.3512 16.6098 25.8789 16.6098H39.1727C39.4922 16.6098 39.7964 16.7722 39.9715 17.0486C40.1474 17.3241 40.1797 17.6652 40.0513 17.9739L35.6733 28.2054C35.5135 28.5627 35.1779 28.7906 34.7947 28.7906Z" fill="white"/>
<path d="M35.4703 33.6495C35.5152 33.6382 35.5365 33.6172 35.5541 33.5963C35.5619 33.5871 35.5697 33.578 35.5775 33.569C35.6139 33.5274 35.6172 33.4391 35.6163 33.3944C35.6032 33.2887 35.5127 33.216 35.4356 33.216C35.4319 33.216 35.4281 33.2161 35.4257 33.2162C35.3478 33.2216 35.2603 33.3251 35.2669 33.4463C35.2762 33.5628 35.3621 33.6495 35.4337 33.6495H35.4703ZM21.8518 33.6431C21.9507 33.6431 22.0311 33.549 22.0311 33.4334C22.0311 33.3182 21.9507 33.2245 21.8518 33.2245C21.753 33.2245 21.6725 33.3182 21.6725 33.4334C21.6725 33.549 21.753 33.6431 21.8518 33.6431ZM35.5935 35.6439C35.5459 35.6439 35.4821 35.6439 35.4337 35.6439C34.2993 35.6439 33.3569 34.7347 33.277 33.5814C33.1971 32.3797 34.0919 31.3081 35.2901 31.2264C35.3389 31.2231 35.3874 31.2215 35.4356 31.2215C36.5712 31.2215 37.53 32.1199 37.6074 33.2727C37.6388 33.8741 37.4629 34.4422 37.0797 34.881C36.6965 35.3361 36.1688 35.5955 35.5935 35.6439ZM21.8518 35.6376C20.651 35.6376 19.6781 34.6513 19.6781 33.4334C19.6781 32.2163 20.651 31.2301 21.8518 31.2301C23.0526 31.2301 24.0256 32.2163 24.0256 33.4334C24.0256 34.6513 23.0526 35.6376 21.8518 35.6376ZM34.7947 28.7906H22.7628C22.3311 28.7906 21.9479 28.4981 21.8356 28.0763L17.9208 13.6865H15.1726C14.6458 13.6865 14.2141 13.2487 14.2141 12.7119C14.2141 12.1761 14.6458 11.7372 15.1726 11.7372H18.6406C19.0714 11.7372 19.4546 12.0298 19.5668 12.4525L23.4817 26.8413H34.1556L37.7026 18.5591H25.8789C25.3512 18.5591 24.9195 18.1202 24.9195 17.5845C24.9195 17.0486 25.3512 16.6098 25.8789 16.6098H39.1727C39.4922 16.6098 39.7964 16.7722 39.9715 17.0486C40.1474 17.3241 40.1797 17.6652 40.0513 17.9739L35.6733 28.2054C35.5135 28.5627 35.1779 28.7906 34.7947 28.7906Z" fill="white"/>
<path d="M57.752 24.9468L56.177 20.8658C56.1304 20.7445 56.0814 20.6045 56.03 20.4458C55.9787 20.2825 55.9297 20.1098 55.883 19.9278C55.785 20.3058 55.6847 20.6208 55.582 20.8728L54.007 24.9468H57.752ZM60.58 28.6708H59.53C59.4087 28.6708 59.3107 28.6405 59.236 28.5798C59.1614 28.5192 59.1054 28.4422 59.068 28.3488L58.13 25.9268H53.629L52.691 28.3488C52.663 28.4328 52.6094 28.5075 52.53 28.5728C52.4507 28.6382 52.3527 28.6708 52.236 28.6708H51.186L55.197 18.6398H56.569L60.58 28.6708ZM66.0753 23.2668C65.8419 22.9542 65.5899 22.7372 65.3193 22.6158C65.0486 22.4898 64.7453 22.4268 64.4093 22.4268C63.7513 22.4268 63.2449 22.6625 62.8903 23.1338C62.5356 23.6052 62.3583 24.2772 62.3583 25.1498C62.3583 25.6118 62.3979 26.0085 62.4773 26.3398C62.5566 26.6665 62.6733 26.9372 62.8273 27.1518C62.9813 27.3618 63.1703 27.5158 63.3943 27.6138C63.6183 27.7118 63.8726 27.7608 64.1573 27.7608C64.5679 27.7608 64.9249 27.6675 65.2283 27.4808C65.5363 27.2942 65.8186 27.0305 66.0753 26.6898V23.2668ZM67.3213 18.3598V28.6708H66.5793C66.4019 28.6708 66.2899 28.5845 66.2433 28.4118L66.1313 27.5508C65.8279 27.9148 65.4826 28.2088 65.0953 28.4328C64.7079 28.6568 64.2599 28.7688 63.7513 28.7688C63.3453 28.7688 62.9766 28.6918 62.6453 28.5378C62.3139 28.3792 62.0316 28.1482 61.7983 27.8448C61.5649 27.5415 61.3853 27.1635 61.2593 26.7108C61.1333 26.2582 61.0703 25.7378 61.0703 25.1498C61.0703 24.6272 61.1403 24.1418 61.2803 23.6938C61.4203 23.2412 61.6209 22.8492 61.8823 22.5178C62.1436 22.1865 62.4633 21.9275 62.8413 21.7408C63.2239 21.5495 63.6533 21.4538 64.1293 21.4538C64.5633 21.4538 64.9343 21.5285 65.2423 21.6778C65.5549 21.8225 65.8326 22.0255 66.0753 22.2868V18.3598H67.3213ZM73.9092 23.2668C73.6759 22.9542 73.4239 22.7372 73.1532 22.6158C72.8826 22.4898 72.5792 22.4268 72.2432 22.4268C71.5852 22.4268 71.0789 22.6625 70.7242 23.1338C70.3696 23.6052 70.1922 24.2772 70.1922 25.1498C70.1922 25.6118 70.2319 26.0085 70.3112 26.3398C70.3906 26.6665 70.5072 26.9372 70.6612 27.1518C70.8152 27.3618 71.0042 27.5158 71.2282 27.6138C71.4522 27.7118 71.7066 27.7608 71.9912 27.7608C72.4019 27.7608 72.7589 27.6675 73.0622 27.4808C73.3702 27.2942 73.6526 27.0305 73.9092 26.6898V23.2668ZM75.1552 18.3598V28.6708H74.4132C74.2359 28.6708 74.1239 28.5845 74.0772 28.4118L73.9652 27.5508C73.6619 27.9148 73.3166 28.2088 72.9292 28.4328C72.5419 28.6568 72.0939 28.7688 71.5852 28.7688C71.1792 28.7688 70.8106 28.6918 70.4792 28.5378C70.1479 28.3792 69.8656 28.1482 69.6322 27.8448C69.3989 27.5415 69.2192 27.1635 69.0932 26.7108C68.9672 26.2582 68.9042 25.7378 68.9042 25.1498C68.9042 24.6272 68.9742 24.1418 69.1142 23.6938C69.2542 23.2412 69.4549 22.8492 69.7162 22.5178C69.9776 22.1865 70.2972 21.9275 70.6752 21.7408C71.0579 21.5495 71.4872 21.4538 71.9632 21.4538C72.3972 21.4538 72.7682 21.5285 73.0762 21.6778C73.3889 21.8225 73.6666 22.0255 73.9092 22.2868V18.3598H75.1552ZM82.8823 28.7828C82.3223 28.7828 81.8906 28.6265 81.5873 28.3138C81.2886 28.0012 81.1393 27.5508 81.1393 26.9628V22.6228H80.2853C80.2106 22.6228 80.1476 22.6018 80.0963 22.5598C80.0449 22.5132 80.0193 22.4432 80.0193 22.3498V21.8528L81.1813 21.7058L81.4683 19.5148C81.4823 19.4448 81.5126 19.3888 81.5593 19.3468C81.6106 19.3002 81.6759 19.2768 81.7553 19.2768H82.3853V21.7198H84.4363V22.6228H82.3853V26.8788C82.3853 27.1775 82.4576 27.3992 82.6023 27.5438C82.7469 27.6885 82.9336 27.7608 83.1623 27.7608C83.2929 27.7608 83.4049 27.7445 83.4983 27.7118C83.5963 27.6745 83.6803 27.6348 83.7503 27.5928C83.8203 27.5508 83.8786 27.5135 83.9253 27.4808C83.9766 27.4435 84.0209 27.4248 84.0583 27.4248C84.1236 27.4248 84.1819 27.4645 84.2333 27.5438L84.5973 28.1388C84.3826 28.3395 84.1236 28.4982 83.8203 28.6148C83.5169 28.7268 83.2043 28.7828 82.8823 28.7828ZM88.6708 21.4678C89.1888 21.4678 89.6555 21.5542 90.0708 21.7268C90.4862 21.8995 90.8408 22.1445 91.1348 22.4618C91.4288 22.7792 91.6528 23.1642 91.8068 23.6168C91.9655 24.0648 92.0448 24.5665 92.0448 25.1218C92.0448 25.6818 91.9655 26.1858 91.8068 26.6338C91.6528 27.0818 91.4288 27.4645 91.1348 27.7818C90.8408 28.0992 90.4862 28.3442 90.0708 28.5168C89.6555 28.6848 89.1888 28.7688 88.6708 28.7688C88.1482 28.7688 87.6768 28.6848 87.2568 28.5168C86.8415 28.3442 86.4868 28.0992 86.1928 27.7818C85.8988 27.4645 85.6725 27.0818 85.5138 26.6338C85.3598 26.1858 85.2828 25.6818 85.2828 25.1218C85.2828 24.5665 85.3598 24.0648 85.5138 23.6168C85.6725 23.1642 85.8988 22.7792 86.1928 22.4618C86.4868 22.1445 86.8415 21.8995 87.2568 21.7268C87.6768 21.5542 88.1482 21.4678 88.6708 21.4678ZM88.6708 27.7958C89.3708 27.7958 89.8935 27.5625 90.2388 27.0958C90.5842 26.6245 90.7568 25.9688 90.7568 25.1288C90.7568 24.2842 90.5842 23.6262 90.2388 23.1548C89.8935 22.6835 89.3708 22.4478 88.6708 22.4478C88.3162 22.4478 88.0058 22.5085 87.7398 22.6298C87.4785 22.7512 87.2592 22.9262 87.0818 23.1548C86.9092 23.3835 86.7785 23.6658 86.6898 24.0018C86.6058 24.3332 86.5638 24.7088 86.5638 25.1288C86.5638 25.9688 86.7365 26.6245 87.0818 27.0958C87.4318 27.5625 87.9615 27.7958 88.6708 27.7958ZM104.543 26.5988C104.618 26.5988 104.683 26.6292 104.739 26.6898L105.278 27.2708C104.868 27.7468 104.368 28.1178 103.78 28.3838C103.197 28.6498 102.49 28.7828 101.659 28.7828C100.941 28.7828 100.287 28.6592 99.6992 28.4118C99.1112 28.1598 98.6095 27.8098 98.1942 27.3618C97.7789 26.9092 97.4569 26.3678 97.2282 25.7378C96.9995 25.1078 96.8852 24.4148 96.8852 23.6588C96.8852 22.9028 97.0042 22.2098 97.2422 21.5798C97.4802 20.9498 97.8139 20.4085 98.2432 19.9558C98.6772 19.5032 99.1952 19.1532 99.7972 18.9058C100.399 18.6538 101.064 18.5278 101.792 18.5278C102.506 18.5278 103.136 18.6422 103.682 18.8708C104.228 19.0995 104.709 19.4098 105.124 19.8018L104.676 20.4248C104.648 20.4715 104.611 20.5112 104.564 20.5438C104.522 20.5718 104.464 20.5858 104.389 20.5858C104.305 20.5858 104.203 20.5415 104.081 20.4528C103.96 20.3595 103.801 20.2568 103.605 20.1448C103.409 20.0328 103.164 19.9325 102.87 19.8438C102.576 19.7505 102.215 19.7038 101.785 19.7038C101.267 19.7038 100.794 19.7948 100.364 19.9768C99.9349 20.1542 99.5639 20.4132 99.2512 20.7538C98.9432 21.0945 98.7029 21.5098 98.5302 21.9998C98.3575 22.4898 98.2712 23.0428 98.2712 23.6588C98.2712 24.2842 98.3599 24.8418 98.5372 25.3318C98.7192 25.8218 98.9642 26.2372 99.2722 26.5778C99.5849 26.9138 99.9512 27.1705 100.371 27.3478C100.796 27.5252 101.253 27.6138 101.743 27.6138C102.042 27.6138 102.31 27.5975 102.548 27.5648C102.791 27.5275 103.013 27.4715 103.213 27.3968C103.419 27.3222 103.608 27.2288 103.78 27.1168C103.958 27.0002 104.133 26.8625 104.305 26.7038C104.385 26.6338 104.464 26.5988 104.543 26.5988ZM110.402 25.4788C109.828 25.4975 109.338 25.5442 108.932 25.6188C108.53 25.6888 108.201 25.7822 107.945 25.8988C107.693 26.0155 107.508 26.1532 107.392 26.3118C107.28 26.4705 107.224 26.6478 107.224 26.8438C107.224 27.0305 107.254 27.1915 107.315 27.3268C107.375 27.4622 107.457 27.5742 107.56 27.6628C107.667 27.7468 107.791 27.8098 107.931 27.8518C108.075 27.8892 108.229 27.9078 108.393 27.9078C108.612 27.9078 108.813 27.8868 108.995 27.8448C109.177 27.7982 109.347 27.7328 109.506 27.6488C109.669 27.5648 109.823 27.4645 109.968 27.3478C110.117 27.2312 110.262 27.0982 110.402 26.9488V25.4788ZM106.377 22.5808C106.769 22.2028 107.191 21.9205 107.644 21.7338C108.096 21.5472 108.598 21.4538 109.149 21.4538C109.545 21.4538 109.898 21.5192 110.206 21.6498C110.514 21.7805 110.773 21.9625 110.983 22.1958C111.193 22.4292 111.351 22.7115 111.459 23.0428C111.566 23.3742 111.62 23.7382 111.62 24.1348V28.6708H111.067C110.945 28.6708 110.852 28.6522 110.787 28.6148C110.721 28.5728 110.67 28.4935 110.633 28.3768L110.493 27.7048C110.306 27.8775 110.124 28.0315 109.947 28.1668C109.769 28.2975 109.583 28.4095 109.387 28.5028C109.191 28.5915 108.981 28.6592 108.757 28.7058C108.537 28.7572 108.292 28.7828 108.022 28.7828C107.746 28.7828 107.487 28.7455 107.245 28.6708C107.002 28.5915 106.79 28.4748 106.608 28.3208C106.43 28.1668 106.288 27.9732 106.181 27.7398C106.078 27.5018 106.027 27.2218 106.027 26.8998C106.027 26.6198 106.104 26.3515 106.258 26.0948C106.412 25.8335 106.661 25.6025 107.007 25.4018C107.352 25.2012 107.802 25.0378 108.358 24.9118C108.913 24.7812 109.594 24.7065 110.402 24.6878V24.1348C110.402 23.5842 110.283 23.1688 110.045 22.8888C109.807 22.6042 109.459 22.4618 109.002 22.4618C108.694 22.4618 108.435 22.5015 108.225 22.5808C108.019 22.6555 107.84 22.7418 107.686 22.8398C107.536 22.9332 107.406 23.0195 107.294 23.0988C107.186 23.1735 107.079 23.2108 106.972 23.2108C106.888 23.2108 106.815 23.1898 106.755 23.1478C106.694 23.1012 106.643 23.0452 106.601 22.9798L106.377 22.5808ZM114.701 23.0008C114.925 22.5155 115.2 22.1375 115.527 21.8668C115.853 21.5915 116.252 21.4538 116.724 21.4538C116.873 21.4538 117.015 21.4702 117.151 21.5028C117.291 21.5355 117.414 21.5868 117.522 21.6568L117.431 22.5878C117.403 22.7045 117.333 22.7628 117.221 22.7628C117.155 22.7628 117.06 22.7488 116.934 22.7208C116.808 22.6928 116.665 22.6788 116.507 22.6788C116.283 22.6788 116.082 22.7115 115.905 22.7768C115.732 22.8422 115.576 22.9402 115.436 23.0708C115.3 23.1968 115.177 23.3555 115.065 23.5468C114.957 23.7335 114.859 23.9482 114.771 24.1908V28.6708H113.518V21.5798H114.232C114.367 21.5798 114.46 21.6055 114.512 21.6568C114.563 21.7082 114.598 21.7968 114.617 21.9228L114.701 23.0008ZM120.794 28.7828C120.234 28.7828 119.803 28.6265 119.499 28.3138C119.201 28.0012 119.051 27.5508 119.051 26.9628V22.6228H118.197C118.123 22.6228 118.06 22.6018 118.008 22.5598C117.957 22.5132 117.931 22.4432 117.931 22.3498V21.8528L119.093 21.7058L119.38 19.5148C119.394 19.4448 119.425 19.3888 119.471 19.3468C119.523 19.3002 119.588 19.2768 119.667 19.2768H120.297V21.7198H122.348V22.6228H120.297V26.8788C120.297 27.1775 120.37 27.3992 120.514 27.5438C120.659 27.6885 120.846 27.7608 121.074 27.7608C121.205 27.7608 121.317 27.7445 121.41 27.7118C121.508 27.6745 121.592 27.6348 121.662 27.5928C121.732 27.5508 121.791 27.5135 121.837 27.4808C121.889 27.4435 121.933 27.4248 121.97 27.4248C122.036 27.4248 122.094 27.4645 122.145 27.5438L122.509 28.1388C122.295 28.3395 122.036 28.4982 121.732 28.6148C121.429 28.7268 121.116 28.7828 120.794 28.7828Z" fill="white"/>
</svg>
